# Blender 4.5.2 LTS
# www.blender.org
mtllib strip.mtl
o Plane
v 0.000000 -0.000000 -0.500000
v 1.000000 -0.000000 -0.500000
v 0.000000 0.000000 0.500000
v 1.000000 0.000000 0.500000
v 2.000000 -0.000000 -0.500000
v 2.000000 0.000000 0.500000
v 3.000000 -0.000000 -0.500000
v 3.000000 0.000000 0.500000
v 4.000000 -0.000000 -0.500000
v 4.000000 0.000000 0.500000
v 5.000000 -0.000000 -0.500000
v 5.000000 0.000000 0.500000
v 6.000000 -0.000000 -0.500000
v 6.000000 0.000000 0.500000
v 7.000000 -0.000000 -0.500000
v 7.000000 0.000000 0.500000
v 8.000000 -0.000000 -0.500000
v 8.000000 0.000000 0.500000
v 9.000000 -0.000000 -0.500000
v 9.000000 0.000000 0.500000
v 10.000000 -0.000000 -0.500000
v 10.000000 0.000000 0.500000
v 11.000000 -0.000000 -0.500000
v 11.000000 0.000000 0.500000
v 12.000000 -0.000000 -0.500000
v 12.000000 0.000000 0.500000
v 13.000000 -0.000000 -0.500000
v 13.000000 0.000000 0.500000
v 14.000000 -0.000000 -0.500000
v 14.000000 0.000000 0.500000
v 15.000000 -0.000000 -0.500000
v 15.000000 0.000000 0.500000
vn -0.0000 -1.0000 -0.0000
vt 0.066667 0.000209
vt 0.000000 0.999791
vt 0.000000 0.000209
vt 0.133333 0.999791
vt 0.066667 0.999791
vt 0.133333 0.000209
vt 0.200000 0.999791
vt 0.200000 0.000209
vt 0.266667 0.999791
vt 0.266667 0.000209
vt 0.333333 0.999791
vt 0.333333 0.000209
vt 0.400000 0.999791
vt 0.400000 0.000209
vt 0.466667 0.999791
vt 0.466667 0.000209
vt 0.533333 0.999791
vt 0.533333 0.000209
vt 0.600000 0.999791
vt 0.600000 0.000209
vt 0.666667 0.999791
vt 0.666667 0.000209
vt 0.733333 0.999791
vt 0.733333 0.000209
vt 0.800000 0.999791
vt 0.800000 0.000209
vt 0.866667 0.999791
vt 0.866667 0.000209
vt 0.933333 0.999791
vt 0.933333 0.000209
vt 1.000000 0.999791
vt 1.000000 0.000209
s 0
f 2/1/1 3/2/1 1/3/1
f 2/1/1 6/4/1 4/5/1
f 5/6/1 8/7/1 6/4/1
f 7/8/1 10/9/1 8/7/1
f 9/10/1 12/11/1 10/9/1
f 11/12/1 14/13/1 12/11/1
f 13/14/1 16/15/1 14/13/1
f 15/16/1 18/17/1 16/15/1
f 17/18/1 20/19/1 18/17/1
f 19/20/1 22/21/1 20/19/1
f 21/22/1 24/23/1 22/21/1
f 23/24/1 26/25/1 24/23/1
f 25/26/1 28/27/1 26/25/1
f 27/28/1 30/29/1 28/27/1
f 29/30/1 32/31/1 30/29/1
f 2/1/1 4/5/1 3/2/1
f 2/1/1 5/6/1 6/4/1
f 5/6/1 7/8/1 8/7/1
f 7/8/1 9/10/1 10/9/1
f 9/10/1 11/12/1 12/11/1
f 11/12/1 13/14/1 14/13/1
f 13/14/1 15/16/1 16/15/1
f 15/16/1 17/18/1 18/17/1
f 17/18/1 19/20/1 20/19/1
f 19/20/1 21/22/1 22/21/1
f 21/22/1 23/24/1 24/23/1
f 23/24/1 25/26/1 26/25/1
f 25/26/1 27/28/1 28/27/1
f 27/28/1 29/30/1 30/29/1
f 29/30/1 31/32/1 32/31/1
